HIERARCHY
ROOT hip
{
	OFFSET 0.000000 0.000000 0.000000
	CHANNELS 6 Xposition Yposition Zposition Zrotation Yrotation Xrotation 
	JOINT lhipjoint
	{
		OFFSET 0.000000 0.000000 0.000000
		CHANNELS 3 Zrotation Yrotation Xrotation
		JOINT lfemur
		{
			OFFSET 1.363060 -1.794630 0.839290
			CHANNELS 3 Zrotation Yrotation Xrotation
			JOINT ltibia
			{
				OFFSET 2.448110 -6.726130 0.000000
				CHANNELS 3 Zrotation Yrotation Xrotation
				JOINT lfoot
				{
					OFFSET 2.562200 -7.039590 0.000000
					CHANNELS 3 Zrotation Yrotation Xrotation
					JOINT ltoes
					{
						OFFSET 0.157640 -0.433110 2.322550
						CHANNELS 3 Zrotation Yrotation Xrotation
						End Site
						{
							OFFSET 0.000000 0.000000 0.000000
						}
					}
				}
			}
		}
	}
	JOINT rhipjoint
	{
		OFFSET 0.000000 0.000000 0.000000
		CHANNELS 3 Zrotation Yrotation Xrotation
		JOINT rfemur
		{
			OFFSET -1.305520 -1.794630 0.839290
			CHANNELS 3 Zrotation Yrotation Xrotation
			JOINT rtibia
			{
				OFFSET -2.542530 -6.985550 0.000000
				CHANNELS 3 Zrotation Yrotation Xrotation
				JOINT rfoot
				{
					OFFSET -2.568260 -7.056230 0.000000
					CHANNELS 3 Zrotation Yrotation Xrotation
					JOINT rtoes
					{
						OFFSET -0.164730 -0.452590 2.363150
						CHANNELS 3 Zrotation Yrotation Xrotation
						End Site
						{
							OFFSET 0.000000 0.000000 0.000000
						}
					}
				}
			}
		}
	}
	JOINT lowerback
	{
		OFFSET 0.000000 0.000000 0.000000
		CHANNELS 3 Zrotation Yrotation Xrotation
		JOINT upperback
		{
			OFFSET 0.028270 2.035590 -0.193380
			CHANNELS 3 Zrotation Yrotation Xrotation
			JOINT thorax
			{
				OFFSET 0.056720 2.048850 -0.042750
				CHANNELS 3 Zrotation Yrotation Xrotation
				JOINT lowerneck
				{
					OFFSET 0.000000 0.000000 0.000000
					CHANNELS 3 Zrotation Yrotation Xrotation
					JOINT upperneck
					{
						OFFSET -0.054170 1.746240 0.172020
						CHANNELS 3 Zrotation Yrotation Xrotation
						JOINT head
						{
							OFFSET 0.104070 1.761360 -0.123970
							CHANNELS 3 Zrotation Yrotation Xrotation
							End Site
							{
								OFFSET 0.000000 0.000000 0.000000
							}
						}
					}
				}
				JOINT lclavicle
				{
					OFFSET 0.000000 0.000000 0.000000
					CHANNELS 3 Zrotation Yrotation Xrotation
					JOINT lhumerus
					{
						OFFSET 3.362410 1.200890 -0.311210
						CHANNELS 3 Zrotation Yrotation Xrotation
						JOINT lradius
						{
							OFFSET 4.983000 -0.000000 -0.000000
							CHANNELS 3 Zrotation Yrotation Xrotation
							JOINT lwrist
							{
								OFFSET 3.483560 -0.000000 -0.000000
								CHANNELS 3 Zrotation Yrotation Xrotation
								JOINT lhand
								{
									OFFSET 0.000000 0.000000 0.000000
									CHANNELS 3 Zrotation Yrotation Xrotation
									JOINT lfingers
									{
										OFFSET 0.715260 -0.000000 -0.000000
										CHANNELS 3 Zrotation Yrotation Xrotation
										End Site
										{
											OFFSET 0.000000 0.000000 0.000000
										}
									}
								}
								JOINT lthumb
								{
									OFFSET 0.000000 0.000000 0.000000
									CHANNELS 3 Zrotation Yrotation Xrotation
									End Site
									{
										OFFSET 0.000000 0.000000 0.000000
									}
								}
							}
						}
					}
				}
				JOINT rclavicle
				{
					OFFSET 0.000000 0.000000 0.000000
					CHANNELS 3 Zrotation Yrotation Xrotation
					JOINT rhumerus
					{
						OFFSET -3.136600 1.374050 -0.404650
						CHANNELS 3 Zrotation Yrotation Xrotation
						JOINT rradius
						{
							OFFSET -5.241900 -0.000000 -0.000000
							CHANNELS 3 Zrotation Yrotation Xrotation
							JOINT rwrist
							{
								OFFSET -3.444170 -0.000000 -0.000000
								CHANNELS 3 Zrotation Yrotation Xrotation
								JOINT rhand
								{
									OFFSET 0.000000 0.000000 0.000000
									CHANNELS 3 Zrotation Yrotation Xrotation
									JOINT rfingers
									{
										OFFSET -0.622530 -0.000000 -0.000000
										CHANNELS 3 Zrotation Yrotation Xrotation
										End Site
										{
											OFFSET 0.000000 0.000000 0.000000
										}
									}
								}
								JOINT rthumb
								{
									OFFSET 0.000000 0.000000 0.000000
									CHANNELS 3 Zrotation Yrotation Xrotation
									End Site
									{
										OFFSET 0.000000 0.000000 0.000000
									}
								}
							}
						}
					}
				}
			}
		}
	}
}
MOTION
Frames: 7
Frame Time: 0.008333
0.738955 16.861717 1.686779 -174.638698 -2.726436 168.256276 8.492936 1.997051 -2.045488 -22.976429 2.785687 0.238083 4.450672 12.287232 38.507032 2.414303 -3.042080 2.746119 0.883100 -5.990600 -16.757200 -13.259992 -3.683564 -4.120676 42.188386 -2.631021 0.192483 -6.371530 -13.833863 45.140697 1.216174 -7.281033 -8.251402 -0.014100 -0.765900 2.104900 6.275839 0.581164 16.189717 0.821845 0.287684 -1.523058 0.241512 0.352677 5.498534 -3.036665 -4.399845 -14.726400 5.551268 -7.466784 0.537593 2.892300 -3.682400 -2.501800 1.279783 -3.730014 3.301054 -84.006438 7.805060 37.503938 3.496012 -36.836493 -3.562877 1.322746 3.180744 -32.773042 38.159683 -3.508804 -4.391600 -7.125000 0.000000 0.000000 6.336600 22.397900 -3.464700 -0.999862 5.432713 5.178036 82.076809 -7.573524 44.426215 -26.887115 45.187160 -8.534029 2.683353 -4.993644 -62.320211 -34.178435 -2.845246 -1.805300 7.125000 0.000000 0.000000 -3.506800 -26.491200 -1.577100 
0.732785 16.805693 1.704889 -174.554707 -2.684049 167.814785 8.484086 2.006155 -2.044395 -22.787432 2.913348 -0.012665 4.729910 12.620778 39.713817 2.577082 -3.527659 2.319921 0.879500 -5.978500 -16.722100 -13.231208 -3.691472 -4.124590 42.023238 -3.032986 -0.046307 -6.598208 -14.072495 46.119850 1.028620 -6.735008 -8.435994 -0.013600 -0.751700 2.065800 6.403373 0.547318 16.922433 0.830177 0.291286 -1.518567 0.232088 0.333760 5.193959 -3.103835 -4.370466 -14.456718 5.597668 -7.431974 0.439999 2.966400 -3.656800 -2.592900 1.333855 -3.784782 3.319942 -84.016119 7.458729 35.542711 2.707385 -36.105982 -3.473634 1.390191 3.115031 -30.973719 37.792760 -3.507922 -4.319900 -7.125000 0.000000 0.000000 6.100800 22.459500 -3.325700 -1.094106 5.490734 5.177374 82.346468 -7.306114 42.686835 -26.211101 44.680024 -8.300605 2.685358 -5.036858 -61.827757 -33.197309 -2.736463 -1.793200 7.125000 0.000000 0.000000 -2.756200 -26.414500 -1.243700 
0.726516 16.742505 1.722502 -174.475839 -2.637685 167.351157 8.476898 2.013951 -2.045935 -22.605333 3.043129 -0.286890 5.044057 12.978484 41.030396 2.748522 -4.036123 1.834013 0.875900 -5.966700 -16.687700 -13.203414 -3.697796 -4.122393 41.861137 -3.380663 -0.292357 -6.855539 -14.332137 47.206416 0.834991 -6.179079 -8.687235 -0.015800 -0.812500 2.232900 6.540656 0.523724 17.673069 0.837763 0.308079 -1.513216 0.176466 0.321528 4.898437 -3.138543 -4.346502 -14.216424 5.645300 -7.402554 0.361709 3.029000 -3.635400 -2.655000 1.386919 -3.831889 3.339355 -83.924157 7.056654 33.358574 1.922318 -35.298633 -3.391625 1.455647 3.038419 -29.304216 37.547657 -3.564020 -4.298800 -7.125000 0.000000 0.000000 5.947500 22.456500 -3.241700 -1.215001 5.542676 5.167761 82.788743 -6.941435 40.347307 -25.261865 44.002331 -8.005828 2.654613 -5.105956 -61.014312 -32.164355 -2.580985 -1.800400 7.125000 0.000000 0.000000 -1.957000 -26.284800 -0.888500 
0.719749 16.672848 1.740016 -174.398207 -2.573304 166.881243 8.472754 2.021294 -2.046541 -22.437998 3.131929 -0.576367 5.392169 13.352496 42.435847 2.900644 -4.479455 1.291039 0.884500 -5.995100 -16.770300 -13.176015 -3.703998 -4.112669 41.709617 -3.696126 -0.565592 -7.138144 -14.605038 48.370792 0.669614 -5.716011 -8.995226 -0.011500 -0.693000 1.904300 6.684806 0.490704 18.437551 0.844487 0.315094 -1.509289 0.106836 0.305819 4.588330 -3.163452 -4.315999 -13.963434 5.684387 -7.362953 0.279554 3.084500 -3.610300 -2.722600 1.421644 -3.873819 3.358578 -83.736323 6.603116 30.842994 1.145850 -34.390025 -3.315846 1.513004 2.953428 -27.787809 37.345501 -3.675546 -4.315100 -7.125000 0.000000 0.000000 5.822400 22.396300 -3.180800 -1.316651 5.593547 5.162408 83.094210 -6.610903 37.961793 -24.414191 43.358450 -7.764101 2.625979 -5.154460 -60.448226 -31.270783 -2.408710 -1.814400 7.125000 0.000000 0.000000 -1.263300 -26.147500 -0.577400 
0.712883 16.597819 1.757231 -174.319378 -2.496151 166.391691 8.469218 2.030048 -2.047528 -22.260941 3.218837 -0.869535 5.767057 13.735149 43.908241 3.073653 -4.980438 0.701808 0.881400 -5.985000 -16.741000 -13.149977 -3.706782 -4.097490 41.569378 -3.960631 -0.840926 -7.444427 -14.887993 49.606598 0.496772 -5.235206 -9.311882 -0.010800 -0.672300 1.847500 6.806848 0.458881 19.231124 0.851592 0.330049 -1.505992 0.125107 0.287086 4.270426 -3.251900 -4.286773 -13.718476 5.724334 -7.316569 0.195525 3.154800 -3.577700 -2.780600 1.430995 -3.913113 3.369661 -83.500271 6.081909 27.938454 0.355169 -33.368951 -3.242770 1.566894 2.860243 -26.368129 37.112931 -3.904084 -4.397900 -7.125000 0.000000 0.000000 5.663900 22.211900 -3.117300 -1.345663 5.635151 5.174039 82.943643 -6.421854 36.153274 -24.092552 42.990129 -7.711426 2.645439 -5.135929 -60.845345 -30.884604 -2.316448 -1.810100 7.125000 0.000000 0.000000 -0.958800 -26.106400 -0.439100 
0.706415 16.519505 1.773153 -174.213669 -2.401996 165.914724 8.467094 2.038967 -2.050512 -22.041168 3.311780 -1.189983 6.163503 14.117974 45.421362 3.254206 -5.500165 0.108569 0.863500 -5.925400 -16.568000 -13.125427 -3.710718 -4.075120 41.473625 -4.184440 -1.135443 -7.764011 -15.172719 50.872282 0.339903 -4.809244 -9.664864 -0.009000 -0.611800 1.681100 6.946440 0.418351 19.986352 0.857077 0.331737 -1.500810 0.135030 0.263608 3.988121 -3.307846 -4.250225 -13.508596 5.758186 -7.259118 0.127524 3.208900 -3.542700 -2.822600 1.395224 -3.932732 3.375904 -83.125233 5.553557 24.777140 -0.245607 -32.349586 -3.199263 1.587044 2.770256 -25.271081 36.860909 -4.156362 -4.495000 -7.125000 0.000000 0.000000 5.500200 21.999100 -3.053200 -1.307702 5.659812 5.199642 82.410172 -6.316822 34.858424 -24.106306 42.807415 -7.784611 2.694397 -5.069446 -62.007278 -30.934077 -2.238335 -1.820800 7.125000 0.000000 0.000000 -0.979600 -26.086900 -0.449100 
0.698753 16.436813 1.788975 -174.141251 -2.298158 165.430561 8.464843 2.048035 -2.050171 -21.861673 3.409664 -1.505274 6.574061 14.492997 46.945112 3.423648 -5.979822 -0.490586 0.858800 -5.909800 -16.523000 -13.097300 -3.713340 -4.056988 41.308493 -4.450404 -1.432875 -8.095640 -15.450154 52.148504 0.166801 -4.334178 -9.974865 -0.007900 -0.573700 1.576500 7.047746 0.380446 20.753336 0.862212 0.335503 -1.497143 0.157469 0.237660 3.698453 -3.375431 -4.215629 -13.310481 5.779599 -7.199125 0.064180 3.254100 -3.506500 -2.852100 1.333410 -3.953402 3.376051 -82.608967 5.014779 21.446761 -0.668342 -31.339001 -3.176624 1.571067 2.688652 -24.471548 36.482407 -4.405271 -4.571800 -7.125000 0.000000 0.000000 5.258500 21.796600 -2.942100 -1.255268 5.681934 5.229656 81.752614 -6.223722 33.348868 -24.028743 42.521833 -7.857429 2.722257 -4.994820 -63.159955 -31.170039 -2.114318 -1.864300 7.125000 0.000000 0.000000 -1.140200 -26.021800 -0.524500 
